<svg width="22" height="22" viewBox="0 0 22 22" fill="none" xmlns="http://www.w3.org/2000/svg">
<path d="M20.335 10.8496L11.4855 2.00664C11.4218 1.94279 11.3461 1.89214 11.2628 1.85758C11.1795 1.82303 11.0902 1.80524 11 1.80524C10.9098 1.80524 10.8205 1.82303 10.7372 1.85758C10.6539 1.89214 10.5782 1.94279 10.5145 2.00664L1.66504 10.8496C1.40723 11.1074 1.26114 11.4576 1.26114 11.8228C1.26114 12.5812 1.87774 13.1978 2.63614 13.1978H3.56856V19.5078C3.56856 19.8881 3.87579 20.1953 4.25606 20.1953H9.625V15.3828H12.0312V20.1953H17.7439C18.1242 20.1953 18.4314 19.8881 18.4314 19.5078V13.1978H19.3639C19.7291 13.1978 20.0793 13.0539 20.3371 12.7939C20.8721 12.2568 20.8721 11.3867 20.335 10.8496Z" fill="#E31D1A"/>
</svg>
