<svg width="22" height="22" viewBox="0 0 22 22" fill="none" xmlns="http://www.w3.org/2000/svg">
<path d="M11 3.66669C11.9725 3.66669 12.9051 4.053 13.5927 4.74063C14.2804 5.42826 14.6667 6.36089 14.6667 7.33335C14.6667 8.30581 14.2804 9.23844 13.5927 9.92608C12.9051 10.6137 11.9725 11 11 11C10.0276 11 9.09493 10.6137 8.40729 9.92608C7.71966 9.23844 7.33335 8.30581 7.33335 7.33335C7.33335 6.36089 7.71966 5.42826 8.40729 4.74063C9.09493 4.053 10.0276 3.66669 11 3.66669ZM11 12.8334C15.0517 12.8334 18.3334 14.4742 18.3334 16.5V18.3334H3.66669V16.5C3.66669 14.4742 6.94835 12.8334 11 12.8334Z" fill="#E31D1A"/>
</svg>
