<svg width="22" height="22" viewBox="0 0 22 22" fill="none" xmlns="http://www.w3.org/2000/svg">
<path d="M11 1.83331C8.47274 1.83331 6.41666 3.8894 6.41666 6.41665V9.16665H5.49999C5.01376 9.16665 4.54744 9.3598 4.20363 9.70362C3.85981 10.0474 3.66666 10.5137 3.66666 11V18.3333C3.66666 18.8195 3.85981 19.2859 4.20363 19.6297C4.54744 19.9735 5.01376 20.1666 5.49999 20.1666H16.5C16.9862 20.1666 17.4525 19.9735 17.7964 19.6297C18.1402 19.2859 18.3333 18.8195 18.3333 18.3333V11C18.3333 10.5137 18.1402 10.0474 17.7964 9.70362C17.4525 9.3598 16.9862 9.16665 16.5 9.16665H15.5833V6.41665C15.5833 3.8894 13.5272 1.83331 11 1.83331ZM8.24999 6.41665C8.24999 4.90048 9.48382 3.66665 11 3.66665C12.5162 3.66665 13.75 4.90048 13.75 6.41665V9.16665H8.24999V6.41665ZM11.9167 16.2461V18.3333H10.0833V16.2461C9.76284 16.0625 9.50551 15.7862 9.34525 15.4535C9.18499 15.1207 9.12933 14.7473 9.18562 14.3823C9.2419 14.0173 9.40748 13.6779 9.66052 13.4089C9.91357 13.1399 10.2422 12.9539 10.6031 12.8755C10.8711 12.8162 11.1491 12.8179 11.4164 12.8803C11.6837 12.9428 11.9336 13.0644 12.1476 13.2363C12.3617 13.4082 12.5344 13.626 12.6531 13.8735C12.7718 14.1211 12.8333 14.3921 12.8333 14.6666C12.8328 14.9872 12.7478 15.302 12.5869 15.5793C12.4259 15.8566 12.1948 16.0866 11.9167 16.2461Z" fill="#E31D1A"/>
</svg>
