<svg width="52" height="52" viewBox="0 0 52 52" fill="none" xmlns="http://www.w3.org/2000/svg">
<path d="M35.3438 24.375H27.625V16.6562C27.625 16.4328 27.4422 16.25 27.2188 16.25H24.7812C24.5578 16.25 24.375 16.4328 24.375 16.6562V24.375H16.6562C16.4328 24.375 16.25 24.5578 16.25 24.7812V27.2188C16.25 27.4422 16.4328 27.625 16.6562 27.625H24.375V35.3438C24.375 35.5672 24.5578 35.75 24.7812 35.75H27.2188C27.4422 35.75 27.625 35.5672 27.625 35.3438V27.625H35.3438C35.5672 27.625 35.75 27.4422 35.75 27.2188V24.7812C35.75 24.5578 35.5672 24.375 35.3438 24.375Z" fill="#333333"/>
<path d="M26 3.25C13.4367 3.25 3.25 13.4367 3.25 26C3.25 38.5633 13.4367 48.75 26 48.75C38.5633 48.75 48.75 38.5633 48.75 26C48.75 13.4367 38.5633 3.25 26 3.25ZM26 44.8906C15.5695 44.8906 7.10938 36.4305 7.10938 26C7.10938 15.5695 15.5695 7.10938 26 7.10938C36.4305 7.10938 44.8906 15.5695 44.8906 26C44.8906 36.4305 36.4305 44.8906 26 44.8906Z" fill="#333333"/>
</svg>
